<svg height="258.232" viewBox="0 0 254.373 258.232" width="254.373" xmlns="http://www.w3.org/2000/svg"><g fill="#fff"><path d="m229.246 136.548c-.208.716-.416 1.433-.6 2.15-.046.138.092.346.023.439-1.248 1.525-.74 3.467-1.271 5.2-.555 1.849-.347 3.93-.671 5.848-.508 2.913-1.2 5.8-1.826 8.692a6.2 6.2 0 0 0 -.462 1.734c.277 3.7-1.2 7.143-1.387 10.8-.139 3.028-1.2 6.01-1.78 9.039-.463 2.381-.809 4.761-1.249 7.142-.508 2.844-1.086 5.664-1.525 8.507a15.038 15.038 0 0 0 .092 3.052c.162.092.347.208.509.3-.671.277-1.618.994-1.965.763a6.058 6.058 0 0 1 -1.9-2.265 9.567 9.567 0 0 1 -.578-2.451 5.831 5.831 0 0 0 .116-1.2c-.231-1.641.763-3.1.37-4.877-.277-1.249.67-2.774 1.086-4.184.047-.185.278-.416.232-.509-1.018-1.78.161-3.444.254-5.178.092-1.919.3-3.814.462-5.733a2.532 2.532 0 0 1 .069-.6c1.156-2.288 1.087-4.854 1.572-7.305.532-2.727 1.041-5.478 1.5-8.229.324-1.942.555-3.907.878-5.871.393-2.451.833-4.924 1.249-7.375a47.313 47.313 0 0 1 .947-5.108c.555-1.85 1.41-3.606 2.081-5.433.439-1.2 1.41-.624 2.034-.508.462.092 1.5.324 1.156 1.387-.023.092.347.323.555.485.029.479.029.872.029 1.288z"/><path d="m142.583 122.609c-.046-.255-.116-.509-.185-.763a35.009 35.009 0 0 1 3.884.231c1.271.208 2.8-.3 3.652 1.2 1.872-1.063 2.913-.855 3.167.647a3.549 3.549 0 0 1 4.23-.485 3.4 3.4 0 0 0 2.242.208 4.071 4.071 0 0 1 2.867.347c.208.092.555.185.693.092.994-.74 1.78-.139 2.636.277s1.687 1.226 2.727.37c.023-.023.116-.046.139-.023 1.526 1.179 3.306.809 4.993.856.948.023 1.9-.047 2.82-.047a3.012 3.012 0 0 1 .786.093c1.272.323 2.52.763 3.791.971a7.91 7.91 0 0 0 2.081-.324 4.257 4.257 0 0 0 4 .6c.532-.208 1.271.162 1.919.277.485.093.947.208 1.433.255.693.092 1.41.161 2.311.254 0-.023.093-.37.162-.717 2.381-.485 2.8-.3 2.867 1.364a8.84 8.84 0 0 0 .947-.347c.393-.184.763-.647 1.133-.6 1.711.162 3.421.486 5.132.648.855.069 1.757-.255 2.612-.162a15.6 15.6 0 0 1 2.681.855c.024-.023.209-.3.417-.624.878.67 1.71 1.156 2.473-.347.347.6.578 1.017.809 1.41.023-.092.069-.208.093-.3.693.277 1.387.578 2.1.809.208.069.462-.092.717-.092a23.637 23.637 0 0 1 2.866.046c.231.023.393.578.671 1.04.277-.509.531-.948.809-1.479.809 1.479 2.889 2.427 1.179 4.345-.578.37-1.156.74-1.827 1.179.278.231.509.416.833.694-.3.092-.625.3-.74.231-2.289-1.572-4.924-.971-7.421-1.225a4.152 4.152 0 0 1 -1.988-1.087 14 14 0 0 1 -6.079-.323c-.486-.162-1.133.3-1.711.346-1.664.093-3.328-.508-5.016-.023-.3.093-.971-.115-1.04-.323-.555-1.642-1.8-.763-2.751-.74a25.061 25.061 0 0 0 -2.866.416 2.2 2.2 0 0 1 -.047-.393c.162-.208.347-.393.509-.6-.069-.092-.162-.185-.231-.277-.532.37-1.064.763-1.41.994-1.5-.463-2.913-.9-4.323-1.364-.046.139-.093.254-.139.393.324.139.671.277 1.387.6-.994.162-1.687.925-1.872-.509-.023-.185-.509-.485-.717-.439-.878.162-1.942.879-2.519.578-1.226-.6-2.266.416-3.375-.046a7.126 7.126 0 0 0 -1.734-.254c0-.162.023-.324.023-.509-.439.208-.855.416-1.341.67-.3-.416-.555-.763-.809-1.109-.023.115-.069.254-.092.37-1.179-.185-2.636 0-3.491-.625-1.271-.947-2.52-.67-3.814-.716a3.392 3.392 0 0 1 -1.295-.116c-1.548-.716-1.572-.739-2.334.763-.486-1.41-1.364-1.849-2.728-1.317-.347.138-.855-.185-1.318-.209-.6-.023-1.225.093-1.826.07a2.258 2.258 0 0 1 -1.2-.439c-.763.531-1.387 1.2-2.612.069-.694-.647-2.081-.532-3.167-.74-.878-.162-1.757-.323-2.843-.508-.162.115-.624.416-1.41.924a23.159 23.159 0 0 1 1.155 3.884 14.446 14.446 0 0 1 -.323 3.259c-.046.532-.139 1.364.115 1.549 1.249.832.833 1.78.578 2.89a6.169 6.169 0 0 0 .324 2.542 59.653 59.653 0 0 1 1.318 5.941c.277 2.312.138 4.693.277 7.028.023.6.485 1.155.6 1.756.439 2.358.878 4.693 1.2 7.051.139.994-.208 2.1.069 3.051a18 18 0 0 1 .555 5.872 4.6 4.6 0 0 0 .532 2.2c1.248 2.335 1.294 4.877 1.225 7.4-.023.971.6 2.566-1.017 2.682-.786.046-1.595-1.064-2.474-1.48-1.525-.74-1.178-1.872-.924-3.121.069-.323-.231-.693-.347-1.063-.092-.277-.324-.74-.231-.855.971-1.064.208-1.757-.6-2.52 1.387-1.04.578-2.219-.139-2.913-.878-.878-.347-1.71-.439-2.542-.046-.463.254-.994.092-1.387-1.017-2.613-.6-5.317-.739-8a6.288 6.288 0 0 0 -.486-2.473c-.485-.971-1.132-1.8-.346-2.913.092-.138-.093-.439-.139-.67-.116-.74-.231-1.5-.393-2.5-.023 0-.393.047-.6.07a30.475 30.475 0 0 0 .139-3.306c-.07-1.248-.44-2.45-.555-3.7a19.8 19.8 0 0 1 .092-2.335c0-.324.093-.74-.069-.994a2.509 2.509 0 0 1 -.277-2.936.626.626 0 0 0 -.024-.578c-1.548-.878-.439-2.2-.578-3.352-.208.046-.439.093-.67.139 0-.093-.069-.208-.023-.277 1.179-2.1-.092-4.323.277-6.45a1.972 1.972 0 0 0 -1.317-2.543c.231.3.439.578.67.879-.139.092-.277.208-.416.3-.509-.716-.994-1.433-1.5-2.15-.184-.277-.277-.67-.531-.809-1.064-.578-2.242-.994-3.283-1.664-.878-.578-1.548-1.479-2.427-2.08-1.456-.994-2.057-2.867-3.814-3.583-.486-.185-.786-.856-1.156-1.318-.092-.116-.069-.393-.139-.393-2.381-.462-2.82-3.051-4.623-4.23a40.864 40.864 0 0 1 -5.363-4.855c-2.219-2.15-4.415-4.3-6.565-6.495q-4.092-4.2-8.114-8.461a13.785 13.785 0 0 1 -1.317-2.011c-1.665 1.572-2.566-.046-3.352-.855-1.387-1.457-2.474-3.19-3.768-4.762-.624-.763-1.456-1.387-2.127-2.127-3.1-3.4-5.594-7.282-8.553-10.8-1.965-2.335-4.045-4.554-6.056-6.843a2.01 2.01 0 0 1 -.439-.578 9.228 9.228 0 0 0 -3.7-4.669 1.664 1.664 0 0 1 -.74-1.04c-.115-1.457-.855-1.225-1.664-.671-1.549 1.017-3.352.555-5.016.832-3.838.6-7.744.948-11.605 1.387-3.213.347-6.426.6-9.616 1.018-2.982.393-5.941.878-8.9 1.433-2.427.439-4.785 1.387-7.212 1.456-2.289.069-4.346.879-6.542 1.11a10.111 10.111 0 0 1 -2.936-.463c-.162-.023-.416-.254-.416-.393-.023-.832.07-1.687.023-2.519-.069-1.133.671-1.364 1.549-1.526 1.595-.277 3.19-.532 4.785-.832 1.8-.347 3.606-.786 5.432-1.063 2.913-.44 5.849-.74 8.738-1.2 1.434-.231 2.821-.762 4.231-.97 1.086-.162 2.242.023 3.328-.093 1.942-.208 3.884-.532 5.8-.855 2.057-.347 4.114-1.11 6.125-.971 2.2.139 4.023-.9 6.034-1.017 2.4-.162 5.016-.3 7.212.485 2.427.879 4.97 1.988 6.565 4.439a65.5 65.5 0 0 0 4.557 5.874c1.248 1.526 2.681 2.936 3.883 4.485 1.919 2.45 3.653 5.016 5.618 7.443 1.664 2.081 3.537 4.022 5.293 6.033.509.6 1.017 1.226 1.48 1.85 1.156 1.549 2.265 3.12 3.074 4.23 1.988 1.318 3.722 2.265 5.248 3.514 2.034 1.664 3.906 3.513 5.779 5.34 1.34 1.317 2.566 2.8 3.86 4.16.809.833 1.688 1.595 2.543 2.381a15.38 15.38 0 0 0 1.318 1.133c.508.37 1.086.647 1.5.9a3.613 3.613 0 0 0 .509.947c1.733 1.549 3.536 3.029 5.224 4.624 2.2 2.08 4.3 4.253 6.449 6.38 1.572 1.572 3.19 3.12 4.762 4.692.509.509.971 1.064 1.457 1.595a1.714 1.714 0 0 0 .486-.321z"/><path d="m154.418 187.912a3.23 3.23 0 0 1 3.191-1.526 40.663 40.663 0 0 0 6.125 1.3c2.4.162 4.693.994 7.12 1.063 1.48.046 2.913.879 4.392 1.295a21.089 21.089 0 0 0 4.67 1.109c2.589.116 5.039.9 7.582 1.249a65.076 65.076 0 0 1 7.235 1.34c1.341.347 2.774.347 4.161.625.879.184 1.688.762 2.566.924a23.111 23.111 0 0 0 2.843.162c.625.046 1.41-.116 1.827.231 1.941 1.549 4.369 1.156 6.472 1.942a7.227 7.227 0 0 1 2.8 1.988c.925 1.04.6 1.895-.786 2.127a13.068 13.068 0 0 1 -3.4-.232c-1.641-.185-3.305-.346-4.947-.647-1.71-.323-3.4-.832-5.108-1.2-1.041-.231-2.127-.37-3.167-.555-.948-.161-1.9-.346-2.82-.554-1.6-.393-3.445-.463-4.739-1.295-1.642-1.063-3.468-.948-5.155-1.479a36.861 36.861 0 0 0 -5.086-.648c-1.04-.161-2.057-.554-3.074-.809-1.179-.3-2.358-.6-3.56-.786-.208-.023-.486.44-.439.393-.763-.162-1.3-.231-1.827-.37a9.367 9.367 0 0 1 -1.941-.577c-1.087-.532-2.081-1.387-3.375-.509-.139.092-.509-.162-.786-.231-1.318-.347-2.612-.717-3.93-1.04-1.364-.324-2.728-.648-4.092-.925a5.523 5.523 0 0 0 -.971-.093c-.694-.884-1.156-1.484-1.781-2.272z"/><path d="m254.373 92.049a8.97 8.97 0 0 1 -2.774 1.086 2.275 2.275 0 0 1 -1.687-1.387c-.255-1.34.67-2.519 1.664-2.427 1.017.093 2.5-.208 2.173 1.711-.023.208.393.485.6.716a1.232 1.232 0 0 1 .024.301z"/><path d="m119.675 258.232a11.481 11.481 0 0 1 -1.5-2.335 1.7 1.7 0 0 1 .809-1.341 3.844 3.844 0 0 1 2.266.6c1.155.832 1.063 1.757-.047 3.075z"/><path d="m169.028.023c.416.971.809 1.919 1.225 2.867-2.288 1.086-3.051.855-3.629-.763-.416-1.11-.162-1.711 1.109-1.734.139 0 .255-.254.393-.393.274.023.574.023.902.023z"/><path d="m220.785 137.056c-.346.139-.647.37-.855.3-.878-.231-2.82-3.491-2.589-4.3.231-.763.994-1.641.809-2.2-.324-.924.162-1.341.439-2.034 1.04-2.751 3.375-3.259 5.849-3.953 1.548-.439 2.4.139 3.49.855a6.159 6.159 0 0 0 1.618.6c.393.116.948.093 1.133.347 1.017 1.456 2.5 2.843 2.265 4.739a13.051 13.051 0 0 1 -1.641 3.976 7.486 7.486 0 0 1 -1.364 1.849 5.324 5.324 0 0 1 -5.617 1.318 18.512 18.512 0 0 0 -1.988-.185c-1.271-.225-1.248-.248-1.549-1.312z"/><path d="m111.492 87.171a10.736 10.736 0 0 1 .254 3.4c-.462 2.034-2.011 3.259-3.861 4.184-1.04.508-1.964 1.2-3.005 1.733a2.936 2.936 0 0 1 -1.34.231c-1.642-.046-2.959-1.017-4.3-1.8a2.213 2.213 0 0 1 -.717-1.109c-.37-.971-.693-1.988-.994-2.982a1.5 1.5 0 0 1 -.046-.948c.763-1.78 1.572-3.537 2.381-5.294a.871.871 0 0 1 .37-.393c.624-.369 1.757-.046 1.641-1.387-.023-.184 1.04-.693 1.5-.6a39.23 39.23 0 0 1 4.438 1.341 6.478 6.478 0 0 1 2.173 1.017 19.867 19.867 0 0 1 2.034 2.358 5.569 5.569 0 0 0 -.528.249z"/><path d="m144.756 131.578a5.7 5.7 0 0 0 -1.433-.37 5.063 5.063 0 0 1 -3.329-.786 7.771 7.771 0 0 1 -3.144-3.283 20.7 20.7 0 0 1 -.878-4.993.461.461 0 0 1 .185-.393c1.456-1.017 2.912-2.057 4.415-3.028a2.233 2.233 0 0 1 1.248-.139c.879.024 1.757.162 2.635.185a5.741 5.741 0 0 1 4.993 4.924c.024.694-.069 1.826 1.411 1.618-2.2 1.595-1.78 5.017-4.577 6.011v-.624c-.601.346-1.11.647-1.526.878z"/><path d="m155.089 193.09c0-.046-.046.3-.116.763a30.244 30.244 0 0 1 -3.768-1.41 8.661 8.661 0 0 1 -2.589-1.965 16.947 16.947 0 0 1 -1.78-2.89c.37-1.41.694-2.473.925-3.559a4.439 4.439 0 0 1 3.375-3.144c.139 0 .324.023.393-.046 1.641-2.1 2.982-.209 4.369.369.9.37 1.641 1.11 2.543 1.5 1.433.6 1.548 1.734 1.525 3.028a3.106 3.106 0 0 0 .3 1.549c1.248 2.08.555 3.953-1.78 4.646-1.016.35-2.056.72-3.397 1.159z"/><path d="m80.562 57.4a11.253 11.253 0 0 0 -2.751 1.872 4.035 4.035 0 0 1 -3.444 1.428c-.462.023-.9.416-1.341.44-1.641.069-2.335-1.3-3.074-2.335a19.737 19.737 0 0 1 -1.85-3.93 3.6 3.6 0 0 1 .786-3.7 13.217 13.217 0 0 0 1.318-1.9c.786-1.48 2.034-1.2 3.306-.994a7.579 7.579 0 0 0 1.779.115 5.4 5.4 0 0 1 5.525 5.433c-.023.647.393 1.317.347 1.965a5.2 5.2 0 0 1 -.601 1.606z"/><path d="m221.409 196.4c0 .971-.046 2.126.023 3.282.07 1.11.578 2.312.3 3.283-.324 1.132-1.11 2.612-2.08 3a6.845 6.845 0 0 1 -4.3-.023c-1.364-.393-3.213-.231-3.884-2.058a12.773 12.773 0 0 0 -.624-1.387c-.323-.577-.647-1.179-1.017-1.71-.878-1.3.07-2.358.347-3.537a2.435 2.435 0 0 0 .069-.9c-.162-1.248.347-1.8 1.618-1.5-.046-.832 1.341-2.057 2.22-1.988a13.14 13.14 0 0 1 3.305.532 9.152 9.152 0 0 1 2.474 1.525 13.578 13.578 0 0 1 1.549 1.481z"/><path d="m24.621 55.363c.647 1.11 2.866 1.642 2.7 3.93 1.6.647.578 2.173.948 3.236.3.833-.555 2.243-1.179 3.191a3.779 3.779 0 0 1 -3.329 2.08c-.554-.023-1.086.509-1.664.555a5.214 5.214 0 0 1 -1.664-.486c-.023.023-.255.232-.509.463a11.034 11.034 0 0 1 -1.78-.948 6.464 6.464 0 0 1 -1.872-6.75 6.973 6.973 0 0 1 3.513-4.623 9.13 9.13 0 0 1 2.52-.624 14.564 14.564 0 0 1 2.316-.024z"/><path d="m128.806 51.457c.855-2.566 2.542-3.814 4.854-3.352.855.162 1.849 1.549 2.1 2.566a2.454 2.454 0 0 1 -1.48 3.213 3.162 3.162 0 0 1 -3.28-.254c-.784-.694-1.478-1.457-2.194-2.173z"/><path d="m47.436 18.285c0-1.387 1.341-2.4 3.029-2.289 1.41.093 2.912 1.272 2.935 2.312.047.948-1.8 3.236-2.658 3.283-1.225.046-3.306-2.012-3.306-3.306z"/><path d="m172.542 168.194c.046.717.369 1.664.046 2.1a3.788 3.788 0 0 1 -2.2 1.179c-.416.093-.994-.462-1.457-.786-.092-.046.047-.508 0-.531-3-.948-.3-2.612-.369-3.884a2.713 2.713 0 0 1 2.08-.809 2.609 2.609 0 0 1 1.9 2.731z"/><path d="m110.428 173.464c.046-1.271 1.85-3.143 2.89-2.635a6.135 6.135 0 0 1 2.173 2.566c.3.555-1.85 2.751-2.5 2.682-1.731-.116-2.609-1.041-2.563-2.613z"/><path d="m66.831 16.99c-1.688 0-2.843-.832-2.82-2.034.023-1.271 1.595-3.259 2.5-2.889.948.393 2.15 1.248 2.358 2.1a2.119 2.119 0 0 1 -2.038 2.823z"/><path d="m124.46 168.263c-.254-.115-.6-.138-.763-.323a3.2 3.2 0 0 1 1.433-4.878c1.017-.3 1.873-.115 2.173.6a3.4 3.4 0 0 1 -.092 2.566c-.486 1.064-1.202 2.172-2.751 2.035z"/><path d="m53.146 224.02.555 1.04c.67 1.364-.347 3.583-1.849 3.768-.532.069-1.2-.509-1.688-.925a4.846 4.846 0 0 1 -.74-1.271c-.369-.671-.67-1.457.139-1.919a6.088 6.088 0 0 1 2.127-.6 3.158 3.158 0 0 1 1.179.231c.092-.116.185-.209.277-.324z"/><path d="m58.047 24.8c2.126.069 3.375 1.063 3.375 2.219a3.176 3.176 0 0 1 -2.751 2.335c-1.11-.07-2.289-1.734-1.942-3.237.139-.617 1.064-1.082 1.318-1.317z"/><path d="m97.414 114.865c-.046-1.41.647-2.543 1.572-2.543 1.225 0 2.658 1.063 2.635 1.965-.023 1.826-.994 2.982-2.635 3.1-.74.067-1.526-1.182-1.572-2.522z"/><path d="m59.341 168.934c.185-.3.393-.6.6-.925 1.179 1.433 1.41 3.652.532 4.485a1.583 1.583 0 0 1 -2.52.023c-1.225-1.087-.971-2.474-.994-3.815 0-.161.694-.485 1.017-.439a4.945 4.945 0 0 1 1.365.671z"/><path d="m243.023 171.2c-.046 1.849-.67 2.635-2.057 2.543-.856-.046-2.335-1.457-2.289-2.173.093-1.664.763-2.589 1.873-2.589a2.421 2.421 0 0 1 2.473 2.219z"/><path d="m105.088 208.116c-.994-.093-2.7-1.827-2.612-2.659.07-.67 2.173-2.057 3.028-1.988a2.965 2.965 0 0 1 2.035 2.659 2.749 2.749 0 0 1 -2.451 1.988z"/><path d="m145.773 32.871c-1.479-.092-2.612-.947-2.543-1.918.093-1.48 1.734-3.075 3.005-2.612a2.965 2.965 0 0 1 1.434 2.126 2.041 2.041 0 0 1 -1.896 2.404z"/><path d="m142.213 95.331c-2.5-.624-3.583-1.756-3.121-3.236.3-.971 2.173-1.734 3.283-1.294a1.722 1.722 0 0 1 1.248 2.126 13.99 13.99 0 0 1 -1.41 2.404z"/><path d="m204.488 48.868q.972-3.537 2.844-3.4c.994.069 1.756 1.479 1.826 3.467-1.549.048-3.028 2.059-4.67-.067z"/><path d="m220.623 34.513c-.739-.6-1.733-1.041-2.034-1.78-.231-.555.278-1.549.624-2.243a1.674 1.674 0 0 1 2.612-.508 2.814 2.814 0 0 1 .9 2.4c-.206.79-1.246 1.318-2.102 2.131z"/><path d="m31.81 90.153c-.093-.947-.185-1.8-.278-2.635 1.827-1.179 3.491-1.387 4.184-.231a2.9 2.9 0 0 1 -.439 2.312c-.716 1.132-2.15 1.225-3.467.554z"/><path d="m47.991 109.363c1.017-1.341 1.595-3.7 3.861-1.988.624.462 1.641 1.664.693 2.728-1.109 1.248-3.051.878-4.554-.74z"/><path d="m19.512 125.544a4.411 4.411 0 0 1 1.248-.462c.694-.023 1.688-.115 2.058.277a2.719 2.719 0 0 1 .716 2.289 3.16 3.16 0 0 1 -2.057 1.41c-.809.208-1.48-.347-1.572-1.341a17.365 17.365 0 0 0 -.393-2.173z"/><path d="m199.565 110.311a15.543 15.543 0 0 1 2.08 2.2c.254.37-1.988 2.7-2.358 2.45a5.227 5.227 0 0 1 -1.965-2.127c-.3-.951 1.064-2.269 2.243-2.523z"/><path d="m250.12 80.1c-.855.855-1.341 1.78-1.942 1.872-1.04.162-2.335.093-2.242-1.641.046-1.11 1.086-2.566 1.965-2.242.786.229 1.34 1.13 2.219 2.011z"/><path d="m206.754 226.47c0 .647-1.618 1.988-2.52 1.942-1.387-.07-1.433-1.341-1.41-2.2a2.106 2.106 0 0 1 1.549-1.387c1.965-.181 2.381.212 2.381 1.645z"/><path d="m0 152.244c.578-.37 1.086-.671 1.572-.971 1.156.416 2.4 1.017 2.126 2.4a1.919 1.919 0 0 1 -2.219 1.5c-1.593-.317-1.479-1.658-1.479-2.929z"/><path d="m139.069 254.325a14.01 14.01 0 0 1 2.011-1.641c.463-.254 2.2 1.572 1.9 1.942a4.667 4.667 0 0 1 -2.219 1.826c-.536.162-1.807-.252-1.692-2.127z"/><path d="m102.869 6.473c-.046-.648-.069-.925-.115-1.295-.278.162-.509.277-.948.532.231-1.017.393-1.8.578-2.636.37-.161.878-.346 1.618-.647.508.786 1.063 1.665 1.595 2.543-.832.462-1.664.902-2.728 1.503z"/><path d="m39.808 170.3c.185.717.717 1.665.462 2.081a3.247 3.247 0 0 1 -2.1 1.2 1.178 1.178 0 0 1 -1.41-1.433 6.751 6.751 0 0 1 1.04-1.734c.116.093.231.162.347.254.162.648.3 1.318.462 1.965.162-.023.324-.046.509-.069v-2.15a6.957 6.957 0 0 0 .69-.114z"/></g></svg>