<svg height="171.814" viewBox="0 0 318.795 171.814" width="318.795" xmlns="http://www.w3.org/2000/svg"><g fill="#fff"><path d="m13.562 36.928a4.016 4.016 0 0 1 .641.55.335.335 0 0 0 .097-.278c-.55-1.557.458-2.565 1.283-3.573.641-.825.55-1.375-.183-1.833-.917-.733-1.925-1.375-2.75-2.016a10.994 10.994 0 0 0 -1.007-1.833c-1.013-1.28-2.296-2.379-2.938-3.845-1.1-2.2-3.3-3.207-4.673-5.132-1.283-1.649-2.383-3.3-3.574-4.948a4.384 4.384 0 0 1 -.458-1.1 12.244 12.244 0 0 1 2.382.459c1.742.549 3.483 1.282 5.224 1.832.275.092.733 0 .916.183 1.008.367 1.924.825 2.932 1.1 1.833.55 3.574 1.008 5.407 1.375a26 26 0 0 1 3.848.733c2.108.824 3.666-.184 5.315-1.008.458-.184.733-.825 1.1-1.375h.916c.367-2.107 1.649-3.665 2.657-5.406 1.192-2.013 3.116-3.113 4.49-4.857.825-1.1 1.467-2.382 2.2-3.574.091-.091.091-.274.183-.366l1.649-1.649a1.48 1.48 0 0 1 .642-.367c.091.183.275.275.366.458.275 1.558.367 3.116.642 4.674.275 1.649-.458 3.482.641 5.039a1.086 1.086 0 0 1 -.091.733 10.173 10.173 0 0 0 -.184 1.558c.092 1.466.367 2.933.458 4.4.092 1.1 0 2.107.092 3.207a2.159 2.159 0 0 0 .458.916 3.187 3.187 0 0 1 .642 3.207.575.575 0 0 0 0 .55.8.8 0 0 0 .641.092 8.987 8.987 0 0 0 1.008-.458c-.183.733-.275 1.283-.458 1.832.916.092 1.649.092 2.474.184v.366c-.275.183-.55.275-.825.458a4.7 4.7 0 0 0 .55.642c1.008-.275 1.833-.55 2.658-.825 0 .275.091.733.091 1.375.458-.367.825-.55 1.375-.917-.184.733-.275 1.283-.55 2.2 1.008-.274 1.741-.458 2.474-.641.641-.183 1.283-.458 2.2-.733-.183 1.008-.366 1.558-.458 2.107.092.092.183.092.275.184.366-.458.641-.825 1.191-1.558 2.383.733 5.04 1.466 7.7 2.291-.183.275-.183.55-.366.55-2.565 1.097-5.044 2.109-7.61 3.109a10.786 10.786 0 0 1 -2.474.275c0 .183.092.458.092.825a8.837 8.837 0 0 0 -1.283.55c-.458-.367-.733-.642-1.1-.917-.091.367-.275.733-.366 1.191-1.283.459-2.658.825-4.215 1.375-.275 1.191-.459 1.466-2.016 1.191l.549.825c.092.275.275.55.184.458-.55.55-1.283 1.008-1.375 1.466-.091.55.367 1.191.642 1.833.091 0 .275-.092.366-.092-.091.825-.091 1.741-.183 2.749a1.344 1.344 0 0 1 .458.275 12.022 12.022 0 0 0 -.916 1.375c-.458.641-.733 1.008.275 1.649 1.1.733-.092 1.191-.55 1.924.366-.091.825-.183 1.283-.274-.092 1.191-.184 2.29-.275 3.482 0 .549.091 1.008.091 1.557 0 .275.184.55.092.733-1.466 1.742 0 3.483-.092 5.224 0 .275.367.549.459.824s.183.825.091.917c-1.374.641-.55 1.924-.733 3.115-.458-.366-.825-.458-1.008-.733-1.008-1.649-1.924-3.39-3.115-5.04-1.283-1.832-2.658-3.482-3.941-5.223-1.008-1.283-2.016-2.657-2.932-3.94a12.22 12.22 0 0 1 -1.1-2.2c-.55.091-1.558.183-2.566.366.366-1.741.183-2.016-1.375-1.741-.183-.366-.458-.733-.733-1.191.458-.092.733-.183 1.1-.275a8.617 8.617 0 0 1 -.367-1.191c-1.283.275-2.566.458-3.757.733a.338.338 0 0 1 -.091.275c.458.091.824.275 1.374.366-.641 1.008-1.466.458-2.291.184-.275 1.282-.916.916-1.741.183a5.7 5.7 0 0 1 .092 1.1c-5.681.275-11.271 1.833-17.319 1.558.917-1.92 1.65-3.661 3.211-4.944a11.037 11.037 0 0 0 1.65-2.382c.183-.275.275-.734.549-.917 1.922-1.466 2.655-3.482 3.663-5.59z"/><path d="m216.9 107.762c.641.366 1.1.458 1.283.641 1.649 1.558 3.207 3.3 4.948 4.765 1.374 1.191 2.932 2.108 4.4 3.207 1.283 1.008 2.566 1.924 3.757 3.024.642.55 1.1 1.191 1.924 1.924a7.114 7.114 0 0 0 .642-.549c-.092-.092-.092-.184-.183-.275h1.741c.183.458.275 1.191.549 1.283.367.183.917-.184 1.375-.275a8.4 8.4 0 0 0 .916.916c-.366.183-.549.367-.916.55.275.366.458.733.733 1.1 1.191-.549 2.291-1.1 3.391-1.649v-.275h-1.283c.366-1.008.366-1.008 2.016-.916-.092-1.283.733-1.1 1.649-.733-.183-.458-.275-.733-.367-1.008 5.407-1.65 10.355-4.674 16.22-6.048-.367 2.107-.642 3.94-1.741 5.59a13.994 13.994 0 0 0 -1.008 2.749c-.092.366-.092.916-.367 1.191-1.283 1.558-1.466 3.39-1.833 5.315-.091.274 0 .458-.091.824a6.325 6.325 0 0 0 -.916-.366c0 .091-.092.183-.092.275 1.1 1.374.275 2.749-.183 3.94-.367 1.1.091 1.283.824 1.741a5.392 5.392 0 0 0 3.116.916c.091 0 .366.184.366.367-.091 1.191 1.1 1.374 1.741 1.924 1.1.916 2.475 1.466 3.391 2.474 1.649 1.833 3.94 2.291 5.864 3.666 1.65 1.282 3.116 2.749 4.857 3.94.183.092.183.366.55.916-1.375-.091-2.383-.091-3.482-.183h-1.1c-1.1-.092-2.2-.183-3.3-.183a3.573 3.573 0 0 0 -1.191.275c-.733-.825-1.924-.459-3.115-.459-1.558 0-3.116.184-4.674.275a41.484 41.484 0 0 1 -4.765.184c-2.2-.184-3.482 1.191-4.856 2.474-.367.275-.459.916-.642 1.557-.641 0-.825.367-.916 1.283-.183 1.65-.825 3.116-1.1 4.765-.458 2.383-2.291 4.032-3.207 6.231a26.617 26.617 0 0 0 -1.1 3.849v.092c-.549.916-1.1 1.832-1.741 2.749-.183-.092-.275-.092-.366-.184-.642-1.557-1.283-3.023-1.924-4.581s-1.283-3.116-1.925-4.582c-.091-.275-.091-.55-.183-.825a7.913 7.913 0 0 0 -.275-1.557c-.458-1.375-1.1-2.749-1.558-4.124-.366-.916-.55-2.016-.824-2.932a1.42 1.42 0 0 0 -.734-.733 3.571 3.571 0 0 1 -1.282-3.757 18.308 18.308 0 0 0 -1.925 1.008v-1.741c-.824.183-1.649.274-2.382.458 0-.092-.092-.184-.092-.367.183-.183.367-.458.55-.641-.092-.092-.092-.275-.183-.367-.917.367-1.833.825-2.841 1.191 0-.183-.183-.549-.275-1.191a12.95 12.95 0 0 0 -1.1 1.191v-2.29c-1.008.641-1.742 1.008-2.475 1.466-.549.366-1.008.733-1.741 1.283 0-1.008-.091-1.467-.091-2.016-.092 0-.184-.092-.367-.092-.183.458-.458.916-.733 1.649h-7.972c-.092-.091-.092-.274-.183-.366.366-.275.824-.642 1.191-.916 1.833-1.467 3.574-3.024 5.5-4.4a9.216 9.216 0 0 1 2.382-.916 4.256 4.256 0 0 1 -.274-.825c.366-.275.733-.641 1.1-.916.367.183.825.458 1.191.641 0-.366.092-.733.092-1.374 1.191-.733 2.566-1.65 3.94-2.383 0-.183-.183-.641-.091-.916.275-.458.733-.642 1.283-1.1-.275-.183-.734-.458-1.558-1.008 1.649-.458 2.016-1.191 1.466-2.291-.092-.183-.183-.458-.275-.366-1.466.092-.825-1.466-1.466-2.016-.092-.092.091-.642.183-1.008-.183 0-.458-.092-.641-.092a19.316 19.316 0 0 0 .733-2.107.849.849 0 0 0 -.275-.825c-1.283-.916-1.375-.825-.458-2.108-.367.184-.825.367-1.192.55-.274-1.1-.458-2.2-.733-3.207-.183-.641-.366-1.191-.549-1.833-.092-.274-.184-.641-.092-.733.55-.824.183-1.466-.275-2.107a5.294 5.294 0 0 1 -.458-1.283c-.367-.642-.733-1.283-1.1-2.016-.183-.275-.55-.825-.458-.916.82-1.1-.005-2.108-.369-3.482z"/><path d="m311.281 159.718-1.1.55c-1.374 1.008-2.932 1.924-4.49 1.466-1.283-.367-2.291-1.558-3.391-2.474a10.809 10.809 0 0 1 -1.374-1.466c.183-.184.458-.275.825-.55-1.741-.092-2.383-1.283-1.741-2.749.366-.916.458-1.924.824-2.841.184-.641-.183-1.649 1.1-1.741.641-.091 1.008-1.283 1.649-1.741a3.356 3.356 0 0 1 2.108-.366c1.1.091 2.2.366 3.39.549.092-.549.184-1.191.275-1.557.733.824 1.375 1.741 2.108 2.657.458.55 1.283 1.008.55 1.924-.092.092 0 .367.091.458.917.825.458 1.925.642 2.841.275 1.924-.642 3.391-1.191 4.948-.092.274-.184.184-.275.092z"/><path d="m147.073 100.339a8.026 8.026 0 0 1 -1.283.733c.183-1.283.458-2.474.641-3.665a3.906 3.906 0 0 1 .367-1.558 12.115 12.115 0 0 1 1.649-2.016c.916-.825 1.833-1.649 3.3-1.374a16.614 16.614 0 0 0 3.024 0c0-.275.091-.733.183-1.741.458.733.733 1.1 1.008 1.649 1.1.092 2.291 1.375 2.749 2.566.55 1.649.092 3.115-.183 4.673-.458 2.749-2.108 4.4-4.4 5.773a17.213 17.213 0 0 0 -1.374 1.1c.458-1.1.458-1.741-.733-1.833a7.716 7.716 0 0 1 -.367 1.1c-1.649.091-2.84-1.008-4.123-1.925-.184.184-.458.367-.642.55a27 27 0 0 0 .184-4.032z"/><path d="m114.084 86.777c.275.367.55.825.825 1.192-1.1 1.741-1.924 3.482-.092 5.406a4.677 4.677 0 0 1 -.916.092c-1.008.183-1.558 1.008-.916 1.649.824.825.641 1.558.091 2.474-.275-.091-.641-.091-1.191-.275.55 1.283.733 2.291-.825 2.841-.641.275-.824 1.374-2.016 1.283-.366 0-1.008.916-1.1 1.466a2.432 2.432 0 0 1 -2.016 2.016 12.062 12.062 0 0 0 -3.024 1.649c-.641.458-1.008 1.192-2.108 1.008-.458-.091-1.191.642-1.557.825-.092-.55-.092-1.191-.184-1.833-.091-.091-.183-.091-.275-.183-.274.458-.458.916-.824 1.558-1.466-.458-3.024-1.008-4.582-1.558-.366-.092-.916-.275-1.1-.092-.916 1.008-1.282.275-1.466-.366a14.476 14.476 0 0 1 -2.2-.275c-.641-.183-1.283-.275-.733-1.375.275-.458-.092-1.191-.367-1.832-.183.275-.366.55-.641.916-.275-.366-.55-.55-.641-.825-.092-1.649-1.1-2.657-2.2-3.757a2.849 2.849 0 0 1 -.366-3.482c-.642-.366-1.833-.458-1.191-1.741 0-.091-.55-.366-.55-.55.091-.641-1.008-1.557.458-2.015.458-.092.275-2.933-.275-3.757.55.183.916.274 1.558.458a16.82 16.82 0 0 1 -.916-1.466 6.754 6.754 0 0 1 -.275-1.558 12.742 12.742 0 0 0 1.557-.825 5.931 5.931 0 0 0 .917-1.741 3.482 3.482 0 0 0 2.84-2.657c.092-.275.825-.459 1.283-.733a5.7 5.7 0 0 1 -.275-1.008 14.518 14.518 0 0 1 .917-1.467c.091.092.183.184.275.184a2.2 2.2 0 0 1 -.275.641c1.557-.733 3.207-1.466 4.765-2.2l.275.275c.091-.642.183-1.283.366-2.108.825.184 2.108.733 2.841.367 1.741-.825 3.024.55 4.581.366a1.927 1.927 0 0 0 .642-.275c.55 1.1.55 1.1 1.741.642 1.008.641 2.016 1.191 3.024 1.833a.982.982 0 0 1 .55 1.282c-.092.55.733 1.283 1.191 2.016a8.454 8.454 0 0 1 .825-1.191 7.177 7.177 0 0 1 .733 1.008 3.009 3.009 0 0 0 .275.55c1.374.641 1.557 1.649.641 3.024 1.1 0 1.466.275 1.283 1.191-.183 1.191.641 1.833 1.924 1.833a4.566 4.566 0 0 1 -1.281 1.1z"/><path d="m246.5 68.451c0-.825.55-1.65-.366-2.383-.092 0 .092-.55.275-.641a10.172 10.172 0 0 1 1.649-.275c.092 0 .275.183.367.275a2.1 2.1 0 0 1 3.115-1.1c.642.275 1.191.367 1.466-.55a3.586 3.586 0 0 1 .459-1.191c.824.092 1.557.183 2.565.366v1.375c.825.275 1.558.641 2.291.916.183-.641.458-1.1 1.466-.733.458.184 1.192-.183 1.925-.366a6.313 6.313 0 0 1 -.275 1.1c.916 1.375 3.115 1.467 2.84 3.666.642-.092 1.283-.184 2.2-.275.091.55.183 1.283.366 2.016 1.008 0 1.008 0 .916 2.291.367-.092.642-.275 1.008-.367-.091 1.1-1.466 2.291.275 3.207q-.549 1.1-1.1 2.2c-.092.183-.275.458-.184.549.642.733.092 1.283-.274 1.833a1.692 1.692 0 0 0 -.184.636 2.5 2.5 0 0 1 -1.47 3.4c-.641.366-1.191.733-1.741 1.1l.367.366c-.367-.183-.733-.275-1.1-.458 0 .092-.092.183-.092.275.367.183.642.366 1.008.55-.916 2.565-1.557 3.023-3.115 1.649-.183.733-.367 1.374-.55 2.2-.825-.091-2.016-.458-2.749-.091-1.008.549-1.924 0-2.841.091a1.13 1.13 0 0 0 -.733.367c-.641.366-1.283.824-1.832 1.191l-.275-.275a5.9 5.9 0 0 1 .366-1.191c-.366-.275-.733-.642-1.191-1.008-.092.458-.092.733-.183 1.1-.458 0-.917.092-1.375.092.092-1.924-.733-2.566-2.84-1.924.091-.367.091-.642.183-.917-.733-.366-2.016-.366-.917-1.649a.862.862 0 0 0 -.366-.825 17.662 17.662 0 0 0 -1.833-.458c0-.183.092-.641.092-1.191-.733-.916-1.833 0-2.841-.275a7.615 7.615 0 0 1 1.1-2.291c.916-.916.275-1.466-.275-2.107-.183-.275-.458-.459-.825-.917.733 0 1.1.092 1.375.092a2.728 2.728 0 0 1 -.367-1.008c0-.458.092-.916.092-1.466.092-.458.183-.825.275-1.283.366-.183.733-.458 1.374-.825-1.557-.275-.824-1.008-.641-1.649s.458-1.1 1.283-1.008a3.415 3.415 0 0 0 .183-1.283 10.667 10.667 0 0 0 -.183-1.466 6.988 6.988 0 0 0 1.837.543z"/><path d="m182.627 141.941c.274.183.733.367.824.641.642 1.65 1.466 3.3 1.1 5.224a3.557 3.557 0 0 1 -1.008 1.924c-.825.733-.916 2.382-2.566 2.016a10.509 10.509 0 0 1 -1.374-.55c-.092.092-.367.55-.55.733a4.547 4.547 0 0 0 -1.558-.183 2.944 2.944 0 0 1 -3.482-1.833c-.275-.641-.916-1.1-1.191-1.741a4.952 4.952 0 0 1 0-1.649 3.247 3.247 0 0 1 .183-.917c-.275.184-.641.367-.916.55l-.275.275c-.092-.092-.184-.092-.275-.183.458-.825.825-1.741 1.374-2.566a21.44 21.44 0 0 1 2.016-2.107 5.132 5.132 0 0 1 .184.916c1.466-.55 1.557-2.749 3.665-2.474 1.649.183 2.657 1.099 3.849 1.924z"/><path d="m315.313 113.351a10.044 10.044 0 0 0 1.191-1.008c.824 1.925 1.649 3.666 1.374 5.865.275 0 .55.091.917.091-.733 1.008-2.016 1.65-1.283 3.3-.733.184-1.375.275-2.108.458a4.533 4.533 0 0 0 .642.733c-1.283 1.467-2.933-.183-3.941.642-.824-.642-1.557-1.1-2.382-1.741.092-.55.275-1.375-1.008-1.375-.092 0-.275-.458-.367-.733a12.127 12.127 0 0 1 -.458-1.374c.184-.917.092-2.383.733-3.116.917-.916.733-2.657 2.383-2.932a.321.321 0 0 0 .183-.092c.825.184.733-2.016 1.924-.733.55.55 1.192 1.1 1.833 1.65z"/></g></svg>