<svg enable-background="new 0 0 1853.389 833.901" height="834" viewBox="0 0 1853.389 833.901" width="1854" xmlns="http://www.w3.org/2000/svg"><path d="m947.095 779.008.159 16.12c.005.505.258.976.677 1.258l13.369 9.008c1.056.711.837 2.324-.369 2.729l-15.282 5.132c-.479.161-.848.547-.987 1.033l-4.436 15.498c-.35 1.224-1.951 1.514-2.71.492l-9.603-12.948c-.301-.406-.783-.638-1.288-.62l-16.111.57c-1.272.045-2.043-1.388-1.305-2.425l9.347-13.135c.293-.412.365-.941.192-1.416l-5.521-15.146c-.436-1.196.689-2.372 1.903-1.991l15.38 4.831c.482.151 1.008.056 1.406-.255l12.699-9.931c1.001-.782 2.468-.077 2.48 1.196z" fill="#fff"/><path d="m938.736 833.902c-1.419 0-2.76-.663-3.629-1.834l-9.146-12.331-15.341.543c-1.719.068-3.33-.852-4.154-2.383-.825-1.531-.71-3.362.298-4.779l8.901-12.508-5.257-14.423c-.596-1.633-.22-3.43.982-4.687 1.202-1.258 2.979-1.714 4.639-1.193l14.645 4.6 12.092-9.457c1.369-1.071 3.194-1.267 4.761-.515 1.567.755 2.551 2.304 2.569 4.042v.001l.151 15.351 12.73 8.577c1.442.972 2.193 2.646 1.96 4.369s-1.402 3.139-3.051 3.692l-14.552 4.887-4.224 14.759c-.478 1.672-1.838 2.903-3.548 3.214-.276.051-.553.075-.826.075zm-12.058-20.191c1.435 0 2.787.678 3.645 1.834l7.835 10.564 3.62-12.646c.412-1.436 1.501-2.576 2.915-3.052l12.471-4.188-10.909-7.35c-1.238-.835-1.986-2.225-2.001-3.718l-.129-13.152-10.361 8.104c-1.175.918-2.729 1.2-4.153.754l-12.549-3.941 4.504 12.358c.512 1.4.301 2.964-.564 4.182l-7.628 10.718 13.146-.465c.052-.001.105-.002.158-.002zm23.576-18.612h.01zm-6.159-16.061v.003z" fill="#232323"/><path d="m1835.095 592.314.163 16.565c.005.519.265 1.003.696 1.293l13.738 9.257c1.085.731.86 2.388-.379 2.805l-15.704 5.274c-.492.165-.872.562-1.015 1.062l-4.558 15.927c-.36 1.257-2.005 1.556-2.785.506l-9.869-13.306c-.309-.417-.804-.655-1.323-.637l-16.556.586c-1.307.046-2.1-1.426-1.341-2.492l9.605-13.497c.301-.423.375-.967.197-1.455l-5.674-15.564c-.448-1.229.708-2.438 1.955-2.046l15.805 4.964c.495.156 1.036.057 1.445-.262l13.049-10.206c1.031-.807 2.538-.082 2.551 1.226z" fill="#fff"/><path d="m1826.505 648.642c-1.433 0-2.786-.67-3.664-1.853l-9.423-12.705-15.809.56c-1.748.063-3.359-.857-4.192-2.403-.833-1.545-.718-3.395.299-4.825l9.172-12.89-5.417-14.861c-.601-1.648-.221-3.461.991-4.73 1.212-1.27 3.005-1.732 4.681-1.205l15.092 4.74 12.46-9.745c1.383-1.081 3.224-1.279 4.807-.519 1.582.762 2.575 2.325 2.592 4.08l.156 15.817 13.118 8.839c1.455.98 2.213 2.67 1.979 4.409s-1.414 3.168-3.078 3.728l-14.998 5.036-4.352 15.207c-.483 1.688-1.856 2.932-3.583 3.245-.277.05-.555.075-.831.075zm-12.388-20.583c1.444 0 2.809.684 3.674 1.85l8.153 10.992 3.765-13.156c.415-1.448 1.515-2.599 2.941-3.079l12.976-4.357-11.349-7.646c-1.25-.842-2.005-2.245-2.02-3.753l-.135-13.684-10.779 8.431c-1.186.927-2.753 1.214-4.19.762l-13.058-4.101 4.687 12.857c.517 1.416.303 2.995-.572 4.224l-7.934 11.148 13.677-.484c.055-.003.11-.004.164-.004zm33.9-6.141h.01z" fill="#232323"/><path d="m33.43 437.39.632 13.326c.02.418.244.799.599 1.02l11.336 7.035c.895.555.765 1.896-.221 2.269l-12.479 4.719c-.391.148-.685.479-.785.885l-3.187 12.955c-.252 1.023-1.567 1.313-2.226.491l-8.344-10.41c-.262-.326-.667-.503-1.084-.473l-13.306.972c-1.051.077-1.733-1.084-1.155-1.965l7.322-11.152c.23-.35.272-.79.114-1.177l-5.036-12.354c-.398-.975.496-1.983 1.512-1.706l12.869 3.517c.403.11.835.015 1.155-.255l10.193-8.607c.807-.681 2.042-.143 2.091.91z" fill="#fff"/><path d="m28.078 483.567c-1.278 0-2.495-.573-3.32-1.603l-7.775-9.7-12.398.906c-1.629.117-3.162-.683-3.992-2.094-.83-1.412-.788-3.14.11-4.509l6.824-10.394-4.693-11.512c-.618-1.517-.327-3.22.759-4.445s2.742-1.715 4.321-1.288l11.993 3.278 9.499-8.021c1.25-1.055 2.96-1.305 4.461-.652 1.502.654 2.483 2.077 2.561 3.713v.001l.588 12.418 10.564 6.556c1.391.863 2.157 2.412 1.999 4.041-.158 1.63-1.208 3.002-2.739 3.582l-11.63 4.397-2.97 12.072c-.392 1.591-1.628 2.798-3.228 3.15-.312.07-.625.104-.934.104zm-10.314-17.364c1.291 0 2.518.584 3.332 1.598l6.154 7.678 2.35-9.553c.337-1.367 1.324-2.479 2.64-2.976l9.199-3.479-8.359-5.188c-1.195-.742-1.948-2.022-2.014-3.427l-.466-9.826-7.516 6.347c-1.072.907-2.524 1.229-3.882.856l-9.49-2.594 3.714 9.11c.531 1.302.387 2.78-.385 3.956l-5.399 8.224 9.812-.717c.103-.006.207-.009.31-.009zm16.598 2.359-.003.001c.001 0 .002 0 .003-.001zm2.696-17.988h.01zm-6.624-13.042v.002z" fill="#232323"/><path d="m787.187 4.213-.632 13.326c-.02.418-.244.799-.599 1.02l-11.336 7.035c-.895.555-.765 1.896.221 2.269l12.479 4.719c.391.148.685.479.785.885l3.187 12.955c.252 1.023 1.567 1.313 2.226.491l8.344-10.41c.262-.326.667-.503 1.084-.473l13.306.972c1.051.077 1.733-1.084 1.155-1.965l-7.322-11.152c-.23-.35-.272-.79-.115-1.177l5.036-12.354c.398-.975-.496-1.983-1.512-1.706l-12.869 3.517c-.403.11-.835.015-1.155-.255l-10.193-8.607c-.806-.681-2.04-.142-2.09.91z" fill="#fff"/><path d="m792.538 50.39c-.309 0-.622-.033-.933-.103-1.599-.353-2.835-1.559-3.227-3.148l-2.97-12.073-11.629-4.397c-1.533-.58-2.583-1.953-2.741-3.584-.158-1.63.609-3.178 2-4.04l10.562-6.556.588-12.417c.078-1.636 1.058-3.059 2.56-3.714 1.5-.653 3.21-.403 4.462.652l9.498 8.021 11.993-3.277c1.58-.431 3.236.062 4.322 1.287s1.377 2.928.759 4.444l-4.693 11.514 6.823 10.392c.899 1.37.941 3.098.111 4.51-.831 1.411-2.365 2.212-3.994 2.094l-12.398-.905-7.776 9.7c-.822 1.027-2.039 1.6-3.317 1.6zm-13.359-24.095 9.202 3.48c1.313.495 2.3 1.606 2.637 2.973l2.35 9.554 6.153-7.676c.88-1.096 2.245-1.695 3.642-1.589l9.813.717-5.399-8.224c-.771-1.176-.915-2.654-.384-3.956l3.713-9.11-9.49 2.594c-1.356.37-2.806.051-3.881-.855l-7.517-6.348-.466 9.826c-.067 1.405-.82 2.686-2.014 3.427zm7.079 9.092c.001.001.002.001.003.001zm.929-31.174h.01z" fill="#232323"/></svg>