<svg height="118.758" viewBox="0 0 182.26 118.758" width="182.26" xmlns="http://www.w3.org/2000/svg"><g fill="#fff"><path d="m145.148 91.451c.733.641 1.283 1.1 1.833 1.557 1.008.642 1.741 3.024 1.283 4.674-.092.275-.092.825 0 .825 1.283.549.641 1.649.733 2.474 0 .275-.183.733 0 .916.458.733.275 1.191-.458 1.649-.184.092-.275.367-.55.825a7.618 7.618 0 0 1 1.1-.366v1.374c-.367-.092-.734-.092-1.283-.183a2.15 2.15 0 0 0 .275.641c.916.275.549 1.008.274 1.375-.733.824-.274 1.1.733 1.374-.916.642-1.649 1.1-2.474 1.65a8.762 8.762 0 0 1 .642.824c-.55.55-.55 1.65-1.833 1.467-.183 0-.458 1.008-.641 1.741-1.1-.184-1.558.641-2.291 1.557a12.6 12.6 0 0 1 -2.658 2.2 9.6 9.6 0 0 1 -1.008.733c-.549-.184-1.1-.459-1.649-.642s-1.1-.275-1.741-.458a4.86 4.86 0 0 1 -.275 1.008c-1.283-.183-2.474-.183-3.665-.458a5.539 5.539 0 0 1 -1.65-.825c.092 0-.183.092-.549.458-.184-.733-.275-1.283-.367-1.832-.458-.184-1.008-.459-1.558-.733a.834.834 0 0 0 -.091-.459 18.527 18.527 0 0 1 -1.65 1.192 25.6 25.6 0 0 0 0-2.658c-.091-.641-.458-.916-1.008-.458a2.771 2.771 0 0 1 -.641.458l-.367-.366 1.1-.55a18.526 18.526 0 0 0 -1.191-1.741c-.733-.916-1.467-1.65-1.008-3.116a11.86 11.86 0 0 0 -.092-3.573c-1.283-.642-1.466-1.65-.367-3.3.642-1.008.917-2.2 2.016-2.841.184-.092 0-.825-.091-1.283a4.109 4.109 0 0 1 2.474-2.749 2.441 2.441 0 0 0 .55-.458c.55-.733.916-1.466 2.2-1.558 1.374-.091 1.466-1.374.458-2.474.55-.733 1.191-1.558 2.291-.825.092.092.275.092.367.184a7.8 7.8 0 0 0 .916.641c.091-.275.275-.641.458-1.191.916.092 1.924.092 3.024.183a.685.685 0 0 1 .458.092c1.558.825 2.2.458 2.657-1.558.184.367.367.825.642 1.283a3.539 3.539 0 0 1 .55-.183c1.1.733 1.924 1.283 2.657 1.741a6.917 6.917 0 0 0 .825 1.649c.092.184.64.001.64.093z"/><path d="m45.542 50.49c-.641.458-1.374 1.1-2.107 1.65a1.273 1.273 0 0 1 -.825 0c-1.283-.092-2.474-.275-3.391 1.008-.641-.184-1.283-1.1-1.649-.092a15.2 15.2 0 0 1 -2.657-.825 6.3 6.3 0 0 1 -1.65-1.466c-.366-.458-.458-1.374-.916-1.649-1.1-.825-.825-1.925-.825-3.024a4.526 4.526 0 0 0 -.275-1.191h-.458a19.534 19.534 0 0 1 1.011-1.925c.367-.733.825-1.283.275-2.2-.092-.183.366-.916.366-.916 1.65.641 2.291-.917 3.208-1.65.733-.549 2.932-1.191 3.665-.641.458.366.916 1.008 1.558.825 1.466-.367 2.291.366 2.932 1.466.55 1.008 1.65 1.649 1.558 3.024a5.985 5.985 0 0 0 .733 2.016 3.724 3.724 0 0 1 -.183 3.115 10 10 0 0 0 -.37 2.475z"/><path d="m174.013 28.315-1.1.55c-1.283.366-2.474.733-3.757.091-.733-.458-2.107-.091-1.832-1.649-.092 0-.184-.092-.275-.092a6.472 6.472 0 0 1 -.275.733c-1.65-1.1-1.65-1.374-.916-3.024q-1.238-.411-2.2-.824a12.307 12.307 0 0 1 0-1.833 8.637 8.637 0 0 0 -.183-4.307c-.458-1.558 2.932-3.665 4.765-3.39a24.754 24.754 0 0 0 3.757.55c2.016 0 3.116 1.466 4.49 2.474.092.091.092.275.092.55a16.676 16.676 0 0 0 -1.741-.734c.916 1.833 1.191 2.016 2.382 1.375 0 1.649.092 3.116 0 4.673 0 .642-.825 1.375.55 1.466-1.191 1.283-2.291 2.475-3.391 3.666a1.713 1.713 0 0 1 -.366-.275z"/><path d="m84.028 41.419c.367-.642 0-.825-.733-1.283-1.466-.642-2.657-1.833-4.123-2.658-2.108-1.278-3.116-3.478-4.765-5.131a26.384 26.384 0 0 0 -3.207-2.383c-.092-.091-.275-.091-.275-.183-.092-.916-.733-1.283-1.466-1.649-.184-.092-.275-.459-.459-.825.275-.183.459-.367.733-.367 2.291-.091 4.582-.091 6.873-.091.916 0 1.833-.183 2.749-.275h.55l3.024.275c1.832.091 3.573.183 5.406.275.733 0 1.375.275 2.016-.55.55-.733 2.657-.642 3.849.183-.092-.916-.184-1.466-.184-2.107l1.65.549c.183-.916.275-1.649.366-2.474h.368a9.244 9.244 0 0 1 .366.917 2.489 2.489 0 0 1 .642-.367c-.183-1.008-.367-1.833-.55-2.749h1.375c-.275-.458-.459-.825-.733-1.374.641.183 1.191.366 1.741.549a2.4 2.4 0 0 0 -.092-2.474 14.9 14.9 0 0 1 -.641-2.291c.916.367 1.466.459 1.924.642l.275-.275c-.367-.367-.733-.642-1.192-1.1 0-2.657 1.925-4.948 2.658-7.7.275.092.55.183.55.275.916 2.749 1.832 5.406 2.657 8.155a9.219 9.219 0 0 1 -.092 2.2h.917a13.136 13.136 0 0 1 .458 1.466c-.367.275-.642.55-1.008.824.366.184.641.367 1.191.642-.366 1.374 1.65 2.474.642 4.123 1.466.367 1.741.733 1.557 2.291.55-.275 1.008-.55 1.558-.824.458.549 0 1.741 1.1 1.649a8.288 8.288 0 0 0 2.016-.55.337.337 0 0 0 -.092-.275c.825.092 1.65.275 2.566.367 0-.092.183-.275.275-.458a11.513 11.513 0 0 1 1.1.824c.642.55 1.1 1.283 2.016.092.55-.733 1.283.092 1.65.825a6.908 6.908 0 0 0 -.092-1.375c1.1.183 2.2.367 3.207.458a13.443 13.443 0 0 0 1.925 0c.275 0 .641.092.733.275.549.825 1.283.642 2.107.458.733-.091 1.558.092 2.383 0 .458 0 .916-.366 1.374-.458.275-.091.917-.091.917 0 .641 1.283 1.832.825 3.115.917a12.264 12.264 0 0 1 -.916 1.008c-2.016 1.008-4.124 1.924-6.14 3.023-1.557.917-3.024 2.016-4.581 3.024a30.118 30.118 0 0 0 -4.032 2.566c-.825.642-1.466 1.191-2.566.642 0 .458-.092.824-.092 1.191.184 0 .367.091.642.091-.183.55-.367 1.1-.642 1.741-1.008-.458-1.741-.549-1.649 1.008 0 .275-.642.642-1.191 1.008a7.449 7.449 0 0 1 -.092-1.282c-.458.091-.825.183-1.191.274.091 1.375.275 2.566.366 3.757.092 0 .184.092.275.092.184-.458.275-.825.458-1.283.825.642.825.733.092 2.2 1.1.367.733 1.008 0 1.741h1.1c-.275 5.682.824 11.363.091 17.5-1.191-.825-2.107-1.283-3.024-2.016-1.008-.825-1.832-1.925-2.84-2.749-1.833-1.558-3.666-3.116-5.5-4.582a8.352 8.352 0 0 0 -1.558-.825 4.016 4.016 0 0 0 .55-.641c-.092-.092-.184-.183-.275-.183-1.558.366-2.474-.734-3.391-1.558-.733-.642-1.282-.642-1.832 0a18.145 18.145 0 0 0 -1.741 2.016c-.367.458-.367 1.191-1.283.824-.275-.091-.825.459-1.191.733a21.233 21.233 0 0 1 -3.941 2.658c-2.291.916-3.3 3.207-5.5 4.215a44.593 44.593 0 0 0 -5.223 3.207 4.484 4.484 0 0 1 -1.283.367c.55-1.375.917-2.291 1.283-3.3.183-.458.275-.825.458-1.283.367-.916.825-1.833 1.283-2.841.092-.366.092-.733.183-1.282 1.1-.367 1.1-1.742 1.467-2.75.549-1.466.916-2.932 1.374-4.49a26.678 26.678 0 0 1 1.466-4.581c1.008-2.016.092-3.666-.641-5.407a2.084 2.084 0 0 1 -1.648-.818z"/><path d="m2.474 11.638a10.435 10.435 0 0 1 -1.374-1.467 1.226 1.226 0 0 1 -.184-.824 27.481 27.481 0 0 0 -.275-2.747c-.091-.369-.458-.552-.641-.827a5.6 5.6 0 0 1 .641-2.2 6.555 6.555 0 0 1 2.291-1.465 23.234 23.234 0 0 1 3.024-1.008c1.283.824 1.833.641 2.383-1.1a1.427 1.427 0 0 0 2.2.641c.461-.183 1.461.459 2.015.917a7.053 7.053 0 0 1 1.646 1.649c.184.275 0 .733 0 1.1a8.068 8.068 0 0 1 -1.924 3.848c.458.184.916.275 1.374.459a.334.334 0 0 0 .092.274c-.366.184-.825.275-.916.367a14.044 14.044 0 0 0 -1.283-.825 3.821 3.821 0 0 1 -.367.917 6.447 6.447 0 0 1 -.733.916 5.146 5.146 0 0 0 -.366 1.1c-.917 1.282-1.925.183-2.933 0-.549-.092-1.1-.367-1.557.366-.092.183-.458.275-.642.275-1.005-.092-1.738-.275-2.471-.366z"/><path d="m176.212 67.9c.367 1.1-.275 1.374-1.008 1.558-1.466.458-1.649-1.1-2.382-1.558-.367.091-1.008.366-1.1.275q-.275-.687-.55-1.65h-1.191c.55-.458.916-.733 1.283-1.1-.916-.825-.733-1.741-.458-2.749.275-.917.183-1.925.366-2.841.184-.733.367-1.649 1.558-1.375 0-.183-.091-.458-.091-.366a10.1 10.1 0 0 1 2.016-.641c.916-.092 1.924-.092 2.932-.184.458 0 .916-.275 1.283-.091 1.832.916 2.565 2.657 3.39 4.4-.733.825.275 2.108-.825 2.841-.183.091-.183.55-.183.916a3.2 3.2 0 0 1 -.55 1.466c.184.275.275.458.459.733-.275.092-.459.275-.733.367-1.008.366-2.108-.55-3.116.366-.092.092-.642-.183-1.1-.367z"/></g></svg>