<svg height="79.738" viewBox="0 0 76.141 79.738" width="76.141" xmlns="http://www.w3.org/2000/svg"><path d="m3 39.881c16.386 6.77 29.132 20.163 35.074 36.856 5.962-16.679 18.698-30.065 35.067-36.858-16.371-6.805-29.107-20.197-35.074-36.88-5.957 16.688-18.693 30.084-35.067 36.882z" fill="#fff"/><path d="m38.075 79.737h-.002c-1.268 0-2.399-.799-2.824-1.994-5.649-15.865-17.82-28.654-33.395-35.089-1.121-.463-1.854-1.556-1.854-2.77s.729-2.308 1.85-2.773c15.56-6.461 27.731-19.262 33.392-35.12.425-1.193 1.556-1.991 2.824-1.991 1.267 0 2.398.796 2.825 1.99 5.67 15.853 17.845 28.654 33.401 35.12 1.12.465 1.849 1.559 1.849 2.771s-.73 2.305-1.85 2.77c-15.556 6.455-27.727 19.248-33.392 35.096-.426 1.194-1.557 1.99-2.825 1.99zm-28.073-39.861c12.185 6.513 22.031 16.738 28.077 29.141 6.057-12.391 15.9-22.614 28.072-29.139-12.175-6.534-22.022-16.766-28.082-29.164-6.052 12.399-15.893 22.63-28.067 29.162z" fill="#232323"/></svg>